<svg width="24" height="24" viewBox="0 0 24 24" fill="none" xmlns="http://www.w3.org/2000/svg">
<path d="M12 22C17.523 22 22 17.523 22 12C22 6.477 17.523 2 12 2C6.477 2 2 6.477 2 12C2 17.523 6.477 22 12 22Z" stroke="#B1B2B7" stroke-width="2" stroke-linecap="round" stroke-linejoin="round"/>
<path d="M7.99959 3H8.99959C7.04962 8.84157 7.04962 15.1584 8.99959 21H7.99959M14.9996 3C16.9496 8.84157 16.9496 15.1584 14.9996 21" stroke="#B1B2B7" stroke-width="1.5" stroke-linecap="round" stroke-linejoin="round"/>
<path d="M3 16.0001V15.0001C8.84157 16.95 15.1584 16.95 21 15.0001V16.0001M3 9.00007C8.84157 7.05011 15.1584 7.05011 21 9.00007" stroke="#B1B2B7" stroke-width="2" stroke-linecap="round" stroke-linejoin="round"/>
</svg>
