<svg width="24" height="24" viewBox="0 0 24 24" fill="none" xmlns="http://www.w3.org/2000/svg">
<path fill-rule="evenodd" clip-rule="evenodd" d="M12 2C6.47701 2 2 6.47701 2 12C2 17.523 6.47701 22 12 22C17.523 22 22 17.523 22 12C22 6.47701 17.523 2 12 2ZM3.81818 12C3.81818 7.48117 7.48117 3.81818 12 3.81818C16.5188 3.81818 20.1818 7.48117 20.1818 12C20.1818 16.5188 16.5188 20.1818 12 20.1818C7.48117 20.1818 3.81818 16.5188 3.81818 12ZM11.0061 8.61021C11.3763 8.39265 11.8116 8.31312 12.2348 8.38571C12.658 8.4583 13.0418 8.67832 13.3183 9.00681C13.5949 9.3353 13.7462 9.75105 13.7456 10.1804L13.7456 10.1818C13.7456 10.6083 13.4137 11.0529 12.7867 11.4708C12.501 11.6614 12.2087 11.8081 11.9843 11.9079C11.8734 11.9572 11.7822 11.9936 11.7209 12.0169C11.6904 12.0286 11.6674 12.0369 11.6535 12.0418L11.6389 12.0469C11.1632 12.2061 10.9063 12.7205 11.0649 13.1965C11.2237 13.6728 11.7385 13.9303 12.2149 13.7715L12.216 13.7711L12.2174 13.7706L12.2209 13.7695L12.231 13.766L12.2626 13.755C12.2885 13.7457 12.3242 13.7327 12.3682 13.716C12.456 13.6825 12.578 13.6337 12.7227 13.5693C13.0097 13.4418 13.3993 13.2477 13.7953 12.9836C14.5319 12.4926 15.5633 11.5738 15.5637 10.1826C15.5649 9.32404 15.2622 8.49274 14.7093 7.8359C14.1562 7.17893 13.3885 6.73888 12.5421 6.5937C11.6957 6.44852 10.8253 6.60757 10.0849 7.04269C9.34453 7.47781 8.78205 8.16092 8.49707 8.97102C8.33046 9.44464 8.57935 9.96366 9.05298 10.1303C9.5266 10.2969 10.0456 10.048 10.2122 9.57437C10.3547 9.16932 10.636 8.82777 11.0061 8.61021ZM12.0001 15.6363C11.498 15.6363 11.091 16.0433 11.091 16.5454C11.091 17.0475 11.498 17.4545 12.0001 17.4545H12.0092C12.5113 17.4545 12.9183 17.0475 12.9183 16.5454C12.9183 16.0433 12.5113 15.6363 12.0092 15.6363H12.0001Z" fill="#2C2D2E"/>
</svg>
