<svg width="32" height="32" viewBox="0 0 32 32" fill="none" xmlns="http://www.w3.org/2000/svg">
<path fill-rule="evenodd" clip-rule="evenodd" d="M6.2 2C5.08609 2 4.0178 2.4425 3.23015 3.23015C2.4425 4.0178 2 5.08609 2 6.2V25.8C2 26.9139 2.4425 27.9822 3.23015 28.7698C4.0178 29.5575 5.08609 30 6.2 30H7.59863C7.59954 30 7.60046 30 7.60137 30H25.8C26.9139 30 27.9822 29.5575 28.7698 28.7698C29.5575 27.9822 30 26.9139 30 25.8V6.2C30 5.08609 29.5575 4.0178 28.7698 3.23015C27.9822 2.4425 26.9139 2 25.8 2H6.2ZM10.9799 27.2H25.8C26.1713 27.2 26.5274 27.0525 26.7899 26.7899C27.0525 26.5274 27.2 26.1713 27.2 25.8V19.3799L23 15.1799L10.9799 27.2ZM27.2 15.4201V6.2C27.2 5.8287 27.0525 5.4726 26.7899 5.21005C26.5274 4.9475 26.1713 4.8 25.8 4.8H6.2C5.8287 4.8 5.4726 4.9475 5.21005 5.21005C4.9475 5.4726 4.8 5.8287 4.8 6.2V25.8C4.8 26.1713 4.9475 26.5274 5.21005 26.7899C5.4726 27.0525 5.8287 27.2 6.2 27.2H7.0201L22.01 12.2101C22.5568 11.6633 23.4432 11.6633 23.9899 12.2101L27.2 15.4201ZM12.5 7.6C11.5717 7.6 10.6815 7.96875 10.0251 8.62513C9.36875 9.2815 9 10.1717 9 11.1C9 12.0283 9.36875 12.9185 10.0251 13.5749C10.6815 14.2313 11.5717 14.6 12.5 14.6C13.4283 14.6 14.3185 14.2313 14.9749 13.5749C15.6313 12.9185 16 12.0283 16 11.1C16 10.1717 15.6313 9.2815 14.9749 8.62513C14.3185 7.96875 13.4283 7.6 12.5 7.6ZM12.005 10.605C12.1363 10.4738 12.3143 10.4 12.5 10.4C12.6857 10.4 12.8637 10.4738 12.995 10.605C13.1263 10.7363 13.2 10.9143 13.2 11.1C13.2 11.2857 13.1263 11.4637 12.995 11.595C12.8637 11.7262 12.6857 11.8 12.5 11.8C12.3143 11.8 12.1363 11.7262 12.005 11.595C11.8738 11.4637 11.8 11.2857 11.8 11.1C11.8 10.9143 11.8738 10.7363 12.005 10.605Z" fill="#B1B2B7"/>
</svg>
