<svg width="18" height="20" viewBox="0 0 18 20" fill="none" xmlns="http://www.w3.org/2000/svg">
<path fill-rule="evenodd" clip-rule="evenodd" d="M7.2 1.81818C6.96131 1.81818 6.73239 1.91396 6.5636 2.08445C6.39482 2.25494 6.3 2.48617 6.3 2.72727V3.63636H11.7V2.72727C11.7 2.48617 11.6052 2.25494 11.4364 2.08445C11.2676 1.91396 11.0387 1.81818 10.8 1.81818H7.2ZM5.29081 0.7988C5.79716 0.287337 6.48392 0 7.2 0H10.8C11.5161 0 12.2028 0.287337 12.7092 0.7988C13.2155 1.31026 13.5 2.00395 13.5 2.72727V3.63636H17.1C17.5971 3.63636 18 4.04338 18 4.54545C18 5.04753 17.5971 5.45455 17.1 5.45455H16.2V17.2727C16.2 17.996 15.9155 18.6897 15.4092 19.2012C14.9028 19.7127 14.2161 20 13.5 20H4.5C3.78391 20 3.09716 19.7127 2.59081 19.2012C2.08446 18.6897 1.8 17.996 1.8 17.2727V5.45455H0.9C0.402944 5.45455 0 5.04753 0 4.54545C0 4.04338 0.402944 3.63636 0.9 3.63636H4.5V2.72727C4.5 2.00395 4.78446 1.31026 5.29081 0.7988ZM3.6 5.45455V17.2727C3.6 17.5138 3.69482 17.7451 3.8636 17.9156C4.03239 18.086 4.26131 18.1818 4.5 18.1818H13.5C13.7387 18.1818 13.9676 18.086 14.1364 17.9156C14.3052 17.7451 14.4 17.5138 14.4 17.2727V5.45455H3.6ZM7.2 8.18182C7.69706 8.18182 8.1 8.58883 8.1 9.09091V14.5455C8.1 15.0475 7.69706 15.4545 7.2 15.4545C6.70294 15.4545 6.3 15.0475 6.3 14.5455V9.09091C6.3 8.58883 6.70294 8.18182 7.2 8.18182ZM9.9 9.09091C9.9 8.58883 10.3029 8.18182 10.8 8.18182C11.2971 8.18182 11.7 8.58883 11.7 9.09091V14.5455C11.7 15.0475 11.2971 15.4545 10.8 15.4545C10.3029 15.4545 9.9 15.0475 9.9 14.5455V9.09091Z" fill="#005FF9"/>
</svg>
