<svg width="24" height="24" viewBox="0 0 24 24" fill="none" xmlns="http://www.w3.org/2000/svg">
<path fill-rule="evenodd" clip-rule="evenodd" d="M5.85 4.90002C5.59804 4.90002 5.35641 5.00011 5.17825 5.17827C5.00009 5.35643 4.9 5.59806 4.9 5.85002V19.15C4.9 19.402 5.00009 19.6436 5.17825 19.8218C5.35641 19.9999 5.59804 20.1 5.85 20.1H12.5C13.0247 20.1 13.45 20.5253 13.45 21.05C13.45 21.5747 13.0247 22 12.5 22H5.85C5.09413 22 4.36922 21.6998 3.83475 21.1653C3.30027 20.6308 3 19.9059 3 19.15V5.85002C3 5.09415 3.30027 4.36924 3.83475 3.83477C4.36922 3.30029 5.09413 3.00002 5.85 3.00002L12.5 3C13.0247 3 13.45 3.42533 13.45 3.95C13.45 4.47467 13.0247 4.9 12.5 4.9L5.85 4.90002ZM16.5 8.50002C16.871 8.12902 17.4725 8.12902 17.8435 8.50002L21.7218 11.8283C22.0928 12.1993 22.0928 12.8008 21.7218 13.1718L17.8435 17.05C17.4725 17.421 16.871 17.421 16.5 17.05C16.129 16.679 16.129 16.0775 16.5 15.7065L18.7565 13.45H9.65C9.12533 13.45 8.7 13.0247 8.7 12.5C8.7 11.9753 9.12533 11.55 9.65 11.55H14.2032H18.7565L16.5 9.84352C16.129 9.47252 16.129 8.87102 16.5 8.50002Z" fill="#2C2D2E"/>
</svg>
