<svg width="24" height="24" viewBox="0 0 24 24" fill="none" xmlns="http://www.w3.org/2000/svg">
<path d="M19.5001 19.0005V21H4.50005V19.0005C4.49479 17.9525 4.88718 16.9415 5.59805 16.1715C6.30155 15.4215 7.25555 15 8.25005 15H15.7501C16.2488 15.0029 16.7416 15.1085 17.1979 15.31C17.6541 15.5115 18.064 15.8048 18.4021 16.1715C19.1129 16.9415 19.5053 17.9525 19.5001 19.0005Z" stroke="#2C2D2E" stroke-width="2" stroke-linecap="round" stroke-linejoin="round"/>
<path d="M14.6517 9.40165C13.9484 10.1049 12.9946 10.5 12.0001 10.5C11.0055 10.5 10.0517 10.1049 9.3484 9.40165C8.64514 8.69839 8.25005 7.74456 8.25005 6.75C8.25005 5.75544 8.64514 4.80161 9.3484 4.09835C10.0517 3.39509 11.0055 3 12.0001 3C12.9946 3 13.9484 3.39509 14.6517 4.09835C15.355 4.80161 15.7501 5.75544 15.7501 6.75C15.7501 7.74456 15.355 8.69839 14.6517 9.40165Z" stroke="#2C2D2E" stroke-width="2" stroke-linecap="round" stroke-linejoin="round"/>
</svg>
