<svg width="26" height="26" viewBox="0 0 26 26" fill="none" xmlns="http://www.w3.org/2000/svg">
<path d="M8.4484 4.36841L1.00012 6.89472V25L8.4484 21.6316M8.4484 4.36841V21.6316M8.4484 4.36841L10.9312 5.21051M8.4484 21.6316L16.7243 25M16.7243 25V20.6633M16.7243 25L24.1725 21.6316V15.3158" stroke="white" stroke-width="2" stroke-linecap="round" stroke-linejoin="round"/>
<path d="M13.7975 9.95571L18.793 19.1053L23.7884 9.95572C24.548 8.56438 24.584 6.89064 23.885 5.46792L23.6207 4.9301C23.1701 4.01323 22.4678 3.24361 21.5959 2.71128C19.875 1.6606 17.7109 1.6606 15.99 2.71128C15.1181 3.24361 14.4158 4.01323 13.9652 4.9301L13.701 5.46792C13.0019 6.89064 13.0379 8.56438 13.7975 9.95571Z" stroke="white" stroke-width="2" stroke-linecap="round" stroke-linejoin="round"/>
<path d="M20.3627 7.31577C20.3627 8.21057 19.6521 8.92104 18.7937 8.92104C17.9353 8.92104 17.2247 8.21057 17.2247 7.31577C17.2247 6.42098 17.9353 5.71051 18.7937 5.71051C19.6521 5.71051 20.3627 6.42098 20.3627 7.31577Z" fill="white" stroke="white"/>
</svg>
