<svg width="24" height="25" viewBox="0 0 24 25" fill="none" xmlns="http://www.w3.org/2000/svg">
<path fill-rule="evenodd" clip-rule="evenodd" d="M6.8775 5.97616C6.69076 5.794 6.44065 5.69321 6.18104 5.69549C5.92143 5.69777 5.67309 5.80294 5.48951 5.98834C5.30593 6.17375 5.2018 6.42456 5.19954 6.68676C5.19729 6.94896 5.29709 7.20156 5.47745 7.39016L10.7183 12.6832L5.47745 17.9762C5.38288 18.0684 5.30745 18.1788 5.25556 18.3008C5.20366 18.4228 5.17635 18.554 5.17521 18.6868C5.17407 18.8195 5.19912 18.9512 5.2489 19.0741C5.29869 19.197 5.37221 19.3087 5.46518 19.4026C5.55814 19.4964 5.66869 19.5707 5.79038 19.621C5.91206 19.6713 6.04244 19.6966 6.17391 19.6954C6.30538 19.6943 6.43531 19.6667 6.55611 19.6143C6.67691 19.5619 6.78617 19.4857 6.8775 19.3902L12.1183 14.0972L17.3591 19.3902C17.5459 19.5723 17.796 19.6731 18.0556 19.6708C18.3152 19.6686 18.5635 19.5634 18.7471 19.378C18.9307 19.1926 19.0348 18.9418 19.0371 18.6796C19.0393 18.4174 18.9395 18.1648 18.7592 17.9762L13.5184 12.6832L18.7592 7.39016C18.9395 7.20156 19.0393 6.94896 19.0371 6.68676C19.0348 6.42456 18.9307 6.17375 18.7471 5.98834C18.5635 5.80294 18.3152 5.69777 18.0556 5.69549C17.796 5.69321 17.5459 5.794 17.3591 5.97616L12.1183 11.2692L6.8775 5.97616Z" fill="white" fill-opacity="0.5"/>
</svg>
