<svg width="29" height="29" viewBox="0 0 29 29" fill="none" xmlns="http://www.w3.org/2000/svg">
<g clip-path="url(#clip0_1601_939)">
<path fill-rule="evenodd" clip-rule="evenodd" d="M22.8215 10.0164C22.8215 10.0164 24.75 10.0164 24.75 11.572C24.75 13.1276 24.75 27.1276 24.75 27.1276C24.75 27.9867 23.6104 28.6831 22.8215 28.6831C22.0325 28.6831 20.75 27.9867 20.75 27.1276V19.1831V11.6831C20.75 10.1276 22.8215 10.0164 22.8215 10.0164ZM14.25 0.683105C15.039 0.683105 16.25 1.37955 16.25 2.23866V14.6831V27.1276C16.25 27.9867 15.039 28.6831 14.25 28.6831C13.461 28.6831 12.25 27.9867 12.25 27.1276V2.23866C12.25 1.37955 13.461 0.683105 14.25 0.683105ZM5.25024 19.3498C6.75024 19.1831 7.75024 20.0462 7.75024 20.9053V23.6831V27.1831C7.75024 28.0422 6.46758 28.6831 5.6786 28.6831C4.88962 28.6831 3.75024 28.0422 3.75024 27.1831V20.9053C3.75024 20.0462 4.46609 19.4369 5.25024 19.3498Z" fill="#005FF9"/>
</g>
<defs>
<clipPath id="clip0_1601_939">
<rect width="28" height="28" fill="white" transform="translate(0.25 0.683105)"/>
</clipPath>
</defs>
</svg>
