<svg width="29" height="29" viewBox="0 0 29 29" fill="none" xmlns="http://www.w3.org/2000/svg">
<path fill-rule="evenodd" clip-rule="evenodd" d="M3.83377 4.10019C6.0217 1.91227 8.98916 0.683105 12.0834 0.683105C15.1775 0.683105 18.145 1.91227 20.3329 4.10019C22.5209 6.28812 23.75 9.25558 23.75 12.3498C23.75 14.9208 22.9014 17.4043 21.3592 19.4258L27.9611 26.0276C28.5686 26.6351 28.5686 27.62 27.9611 28.2275C27.3536 28.835 26.3687 28.835 25.7612 28.2275L19.1594 21.6257C17.1379 23.1678 14.6544 24.0164 12.0834 24.0164C8.98916 24.0164 6.0217 22.7873 3.83377 20.5993C1.64585 18.4114 0.416687 15.444 0.416687 12.3498C0.416687 9.25558 1.64585 6.28812 3.83377 4.10019ZM12.0834 3.79422C9.81428 3.79422 7.63814 4.6956 6.03366 6.30008C4.42918 7.90456 3.5278 10.0807 3.5278 12.3498C3.5278 14.6188 4.42918 16.795 6.03366 18.3995C7.63814 20.0039 9.81428 20.9053 12.0834 20.9053C14.3524 20.9053 16.5286 20.0039 18.133 18.3995C19.7375 16.795 20.6389 14.6188 20.6389 12.3498C20.6389 10.0807 19.7375 7.90456 18.133 6.30008C16.5286 4.6956 14.3524 3.79422 12.0834 3.79422Z" fill="#005FF9"/>
</svg>
