<svg width="29" height="29" viewBox="0 0 29 29" fill="none" xmlns="http://www.w3.org/2000/svg">
<path d="M22.8334 22.8504V25.1831H5.33337V22.8504C5.32724 21.6277 5.78502 20.4482 6.61437 19.5499C7.43512 18.6749 8.54812 18.1831 9.70837 18.1831H18.4584C19.0403 18.1865 19.6152 18.3096 20.1475 18.5448C20.6798 18.7799 21.158 19.122 21.5524 19.5499C22.3817 20.4482 22.8395 21.6277 22.8334 22.8504Z" stroke="#005FF9" stroke-width="3" stroke-linecap="round" stroke-linejoin="round"/>
<path d="M17.177 11.6517C16.3565 12.4722 15.2437 12.9331 14.0834 12.9331C12.9231 12.9331 11.8103 12.4722 10.9898 11.6517C10.1693 10.8312 9.70837 9.71843 9.70837 8.55811C9.70837 7.39778 10.1693 6.28499 10.9898 5.46451C11.8103 4.64404 12.9231 4.18311 14.0834 4.18311C15.2437 4.18311 16.3565 4.64404 17.177 5.46451C17.9974 6.28499 18.4584 7.39778 18.4584 8.55811C18.4584 9.71843 17.9974 10.8312 17.177 11.6517Z" stroke="#005FF9" stroke-width="3" stroke-linecap="round" stroke-linejoin="round"/>
</svg>
