<svg width="29" height="29" viewBox="0 0 29 29" fill="none" xmlns="http://www.w3.org/2000/svg">
<g clip-path="url(#clip0_1201_23)">
<path fill-rule="evenodd" clip-rule="evenodd" d="M22.8215 10.0165C22.8215 10.0165 24.75 10.0165 24.75 11.5721C24.75 13.1276 24.75 27.1276 24.75 27.1276C24.75 27.9867 23.6104 28.6832 22.8215 28.6832C22.0325 28.6832 20.75 27.9867 20.75 27.1276V19.1832V11.6832C20.75 10.1276 22.8215 10.0165 22.8215 10.0165ZM14.25 0.683167C15.039 0.683167 16.25 1.37961 16.25 2.23872V14.6832V27.1276C16.25 27.9867 15.039 28.6832 14.25 28.6832C13.461 28.6832 12.25 27.9867 12.25 27.1276V2.23872C12.25 1.37961 13.461 0.683167 14.25 0.683167ZM5.25024 19.3498C6.75024 19.1832 7.75024 20.0463 7.75024 20.9054V23.6832V27.1832C7.75024 28.0423 6.46758 28.6832 5.6786 28.6832C4.88962 28.6832 3.75024 28.0423 3.75024 27.1832V20.9054C3.75024 20.0463 4.46609 19.437 5.25024 19.3498Z" fill="white"/>
</g>
<defs>
<clipPath id="clip0_1201_23">
<rect width="28" height="28" fill="white" transform="translate(0.25 0.683167)"/>
</clipPath>
</defs>
</svg>
