<svg width="29" height="29" viewBox="0 0 29 29" fill="none" xmlns="http://www.w3.org/2000/svg">
<path d="M22.8333 22.8504V25.1832H5.33331V22.8504C5.32718 21.6278 5.78496 20.4483 6.61431 19.5499C7.43506 18.6749 8.54806 18.1832 9.70831 18.1832H18.4583C19.0402 18.1866 19.6152 18.3097 20.1474 18.5448C20.6797 18.78 21.1579 19.1221 21.5523 19.5499C22.3817 20.4483 22.8394 21.6278 22.8333 22.8504Z" stroke="white" stroke-width="3" stroke-linecap="round" stroke-linejoin="round"/>
<path d="M17.1769 11.6518C16.3564 12.4722 15.2436 12.9332 14.0833 12.9332C12.923 12.9332 11.8102 12.4722 10.9897 11.6518C10.1692 10.8313 9.70831 9.71849 9.70831 8.55817C9.70831 7.39784 10.1692 6.28505 10.9897 5.46457C11.8102 4.6441 12.923 4.18317 14.0833 4.18317C15.2436 4.18317 16.3564 4.6441 17.1769 5.46457C17.9974 6.28505 18.4583 7.39784 18.4583 8.55817C18.4583 9.71849 17.9974 10.8313 17.1769 11.6518Z" stroke="white" stroke-width="3" stroke-linecap="round" stroke-linejoin="round"/>
</svg>
