<svg width="29" height="29" viewBox="0 0 29 29" fill="none" xmlns="http://www.w3.org/2000/svg">
<path fill-rule="evenodd" clip-rule="evenodd" d="M3.83371 4.10025C6.02164 1.91233 8.9891 0.683167 12.0833 0.683167C15.1775 0.683167 18.1449 1.91233 20.3329 4.10025C22.5208 6.28818 23.75 9.25564 23.75 12.3498C23.75 14.9208 22.9013 17.4043 21.3592 19.4258L27.961 26.0277C28.5685 26.6351 28.5685 27.6201 27.961 28.2276C27.3535 28.835 26.3686 28.835 25.7611 28.2276L19.1593 21.6257C17.1378 23.1679 14.6543 24.0165 12.0833 24.0165C8.9891 24.0165 6.02164 22.7873 3.83371 20.5994C1.64579 18.4115 0.416626 15.444 0.416626 12.3498C0.416626 9.25564 1.64579 6.28818 3.83371 4.10025ZM12.0833 3.79428C9.81422 3.79428 7.63808 4.69566 6.0336 6.30014C4.42912 7.90462 3.52774 10.0808 3.52774 12.3498C3.52774 14.6189 4.42912 16.795 6.0336 18.3995C7.63808 20.004 9.81422 20.9054 12.0833 20.9054C14.3524 20.9054 16.5285 20.004 18.133 18.3995C19.7375 16.795 20.6388 14.6189 20.6388 12.3498C20.6388 10.0808 19.7375 7.90462 18.133 6.30014C16.5285 4.69566 14.3524 3.79428 12.0833 3.79428Z" fill="white"/>
</svg>
