<svg width="26" height="24" viewBox="0 0 26 24" fill="none" xmlns="http://www.w3.org/2000/svg">
<g clip-path="url(#clip0_1457_8564)">
<path d="M23.1555 18.6071C23.1193 18.6019 23.0823 18.6056 23.0478 18.6178C23.0132 18.6299 22.9821 18.6503 22.957 18.6772C22.8677 18.7673 22.957 19.0075 22.9074 19.1076C22.8578 19.2077 22.9074 19.1577 22.9074 19.1577L16.6256 20.7291V16.0147C16.6269 15.9219 16.6099 15.8297 16.5756 15.7435C16.5413 15.6574 16.4903 15.5789 16.4257 15.5128C16.361 15.4467 16.284 15.3942 16.1991 15.3583C16.1142 15.3225 16.023 15.304 15.9309 15.3041H12.4973C12.4231 15.2849 12.3554 15.246 12.3013 15.1914C12.2472 15.1368 12.2086 15.0686 12.1897 14.9938L11.6438 11.6807L12.3286 12.3913C12.4068 12.473 12.501 12.5374 12.6052 12.5805C12.7094 12.6236 12.8214 12.6444 12.9339 12.6416C13.1356 12.643 13.3304 12.568 13.4798 12.4314L15.3157 11.3404C15.3934 11.2951 15.4612 11.2344 15.515 11.162C15.5688 11.0896 15.6076 11.007 15.6289 10.919C15.6502 10.8311 15.6537 10.7398 15.6391 10.6505C15.6245 10.5612 15.5921 10.4758 15.5439 10.3995V10.3094C15.4402 10.1487 15.2781 10.0356 15.0924 9.99437C14.9068 9.95318 14.7125 9.98723 14.5515 10.0892L13.1721 10.92L10.9789 8.66785L10.8003 8.47767L10.6614 8.36757C10.4833 8.22321 10.278 8.11683 10.058 8.05489C9.8379 7.99295 9.60766 7.97674 9.38121 8.00723H9.26212C9.05671 8.03956 8.85992 8.11356 8.68365 8.22475C8.50739 8.33594 8.3553 8.48201 8.23657 8.65415C8.11785 8.82629 8.03495 9.02092 7.99289 9.22628C7.95083 9.43163 7.95049 9.64346 7.99187 9.84896L9.05372 16.265C9.10634 16.5812 9.25482 16.8732 9.47874 17.1009C9.70266 17.3285 9.99101 17.4806 10.3041 17.5361H10.3835C10.4192 17.5464 10.457 17.5464 10.4927 17.5361H14.105C14.4523 17.6262 14.4622 17.8765 14.4622 17.9165V21.2196L8.35905 22.781C8.05141 22.8611 7.72393 23.0113 7.83309 23.3015C7.94225 23.5918 8.12088 23.5318 8.52776 23.4617L9.2125 23.2915L22.9769 19.9084C23.1175 19.841 23.2387 19.7386 23.3291 19.6107C23.4194 19.4828 23.4758 19.3337 23.4929 19.1777C23.5114 19.0578 23.4878 18.9352 23.4262 18.8311C23.3646 18.7269 23.2688 18.6477 23.1555 18.6071ZM7.76362 6.09544C7.76364 6.45065 7.86835 6.79784 8.06443 7.09289C8.26051 7.38795 8.53912 7.61757 8.86487 7.75256C9.19061 7.88756 9.54879 7.92186 9.89391 7.85109C10.239 7.78032 10.5555 7.60768 10.8031 7.3551C11.0507 7.10252 11.2183 6.78141 11.2846 6.43255C11.3509 6.08369 11.3129 5.72283 11.1754 5.39581C11.0379 5.0688 10.8071 4.79038 10.5124 4.59594C10.2177 4.4015 9.87229 4.2998 9.52014 4.30377C9.05247 4.30904 8.60572 4.50013 8.27687 4.83556C7.94802 5.171 7.76359 5.62371 7.76362 6.09544ZM13.311 19.8183C13.4279 19.8183 13.5435 19.7949 13.6514 19.7495C13.7592 19.7041 13.857 19.6376 13.9391 19.5538C14.0213 19.47 14.0861 19.3707 14.1299 19.2614C14.1737 19.1522 14.1956 19.0353 14.1943 18.9174V18.7773C14.1956 18.6595 14.1737 18.5426 14.1299 18.4333C14.0861 18.3241 14.0213 18.2247 13.9391 18.1409C13.857 18.0571 13.7592 17.9906 13.6514 17.9452C13.5435 17.8998 13.4279 17.8765 13.311 17.8765H9.73847C9.45934 17.877 9.18936 17.7762 8.97795 17.5924C8.76654 17.4085 8.62786 17.1541 8.5873 16.8755L7.35674 8.86804C7.29729 8.44308 7.29729 8.0118 7.35674 7.58684L7.68423 4.52397V4.49395L15.1966 1.49114C15.3411 1.43277 15.4648 1.33183 15.5515 1.20148C15.6383 1.07113 15.684 0.917438 15.6828 0.760453C15.6968 0.66421 15.6968 0.566425 15.6828 0.470182C15.6078 0.280425 15.4611 0.128498 15.275 0.0477908C15.0889 -0.0329159 14.8787 -0.0357977 14.6905 0.039779L1.08488 5.41481C0.940082 5.47387 0.815773 5.57469 0.727513 5.70466C0.639253 5.83463 0.590963 5.98797 0.588688 6.14549C0.588379 6.24536 0.608656 6.34421 0.648231 6.43576C0.684445 6.53061 0.738903 6.6173 0.808468 6.69083C0.878033 6.76437 0.961332 6.8233 1.05357 6.86423C1.14581 6.90517 1.24516 6.9273 1.34591 6.92934C1.44666 6.93139 1.54682 6.91332 1.64061 6.87617L5.96741 5.16457L5.63 7.48674C5.55553 7.9609 5.55553 8.44393 5.63 8.91808L6.98956 18.3269C7.04194 18.7372 7.23504 19.1161 7.53537 19.3979C7.84407 19.6676 8.23842 19.8168 8.64684 19.8183H13.311Z" fill="black"/>
</g>
<defs>
<clipPath id="clip0_1457_8564">
<rect width="23" height="24" fill="white" transform="translate(0.588684)"/>
</clipPath>
</defs>
</svg>
