<svg width="26" height="24" viewBox="0 0 26 24" fill="none" xmlns="http://www.w3.org/2000/svg">
<g clip-path="url(#clip0_1457_8553)">
<mask id="mask0_1457_8553" style="mask-type:luminance" maskUnits="userSpaceOnUse" x="0" y="0" width="26" height="24">
<path d="M0.812866 0H25.5146V24H0.812866V0Z" fill="white"/>
</mask>
<g mask="url(#mask0_1457_8553)">
<path d="M16.9462 10.5H9.38129C8.91041 10.5 8.53217 10.8675 8.53217 11.325V17.925C8.53217 18.3825 8.91041 18.75 9.38129 18.75H16.9462C17.4171 18.75 17.7953 18.3825 17.7953 17.925V11.325C17.7953 10.875 17.4171 10.5 16.9462 10.5Z" fill="#2C2D2E"/>
<path d="M23.2166 2.16009C23.2288 2.25795 23.221 2.35718 23.1937 2.45212C23.1663 2.54705 23.12 2.63582 23.0574 2.71335C22.9947 2.79088 22.9169 2.85564 22.8285 2.90394C22.74 2.95224 22.6427 2.98313 22.5419 2.99484L13.9357 3.99984V6.75009H16.5602C16.815 6.75009 17.0157 6.95259 17.0234 7.19259V7.50009H22.4115C24.1275 7.50009 25.4992 8.85759 25.5146 10.4941L25.5185 10.8841L25.5146 10.8908V20.2426C25.5138 21.239 25.106 22.1944 24.3807 22.8989C23.6555 23.6034 22.6721 23.9995 21.6465 24.0001H4.68024C3.6548 23.9993 2.67159 23.6032 1.9465 22.8987C1.2214 22.1942 0.813684 21.2389 0.812866 20.2426L0.812866 10.5001C0.816726 8.84259 2.20234 7.50009 3.90831 7.50009H9.3041V7.19259C9.3041 6.95259 9.5048 6.75009 9.75953 6.75009H12.3918V4.18059L3.9855 5.16234C3.7822 5.18621 3.57747 5.13063 3.41635 5.00785C3.25523 4.88506 3.15091 4.70511 3.12634 4.50759C3.10177 4.31007 3.15897 4.11116 3.28535 3.95461C3.41173 3.79806 3.59694 3.69671 3.80023 3.67284L8.04894 3.17709C8.06353 3.17443 8.07821 3.17218 8.09294 3.17034L17.7266 2.04534L17.766 2.04159L22.3582 1.50534C22.4589 1.49361 22.5609 1.50126 22.6585 1.52785C22.7562 1.55445 22.8474 1.59946 22.9271 1.66033C23.0069 1.72121 23.0734 1.79674 23.1231 1.88261C23.1728 1.96849 23.2045 2.06228 23.2166 2.16009ZM3.90831 9.00009C3.49813 9.00008 3.10465 9.15788 2.81389 9.43897C2.52314 9.72006 2.35877 10.1016 2.35673 10.5001H6.1361C6.60852 10.5001 6.98831 10.8751 6.98831 11.3251V17.9251C6.98831 18.3826 6.60852 18.7501 6.1361 18.7501H2.35673V20.2426C2.35673 21.4876 3.39883 22.5001 4.68101 22.5001H21.6473C22.9279 22.5001 23.9708 21.4876 23.9708 20.2426V18.7501H20.1914C19.719 18.7501 19.3392 18.3826 19.3392 17.9251V11.3251C19.3392 10.8676 19.719 10.5001 20.1914 10.5001H23.9708C23.9643 10.1016 23.7975 9.72147 23.506 9.44108C23.2145 9.1607 22.8216 9.00239 22.4115 9.00009H3.90831Z" fill="#2C2D2E"/>
</g>
</g>
<defs>
<clipPath id="clip0_1457_8553">
<rect width="24.7018" height="24" fill="white" transform="translate(0.812866)"/>
</clipPath>
</defs>
</svg>
