<svg width="26" height="24" viewBox="0 0 26 24" fill="none" xmlns="http://www.w3.org/2000/svg">
<g clip-path="url(#clip0_1457_8571)">
<path d="M22.7226 0.588861C22.6899 0.555095 22.6508 0.52827 22.6078 0.509957C22.5647 0.491643 22.5184 0.482211 22.4717 0.482211C22.425 0.482211 22.3787 0.491643 22.3356 0.509957C22.2926 0.52827 22.2535 0.555095 22.2208 0.588861L15.4672 6.25384C15.3925 6.00655 15.2273 5.79743 15.0054 5.66914C14.7835 5.54085 14.5215 5.50306 14.273 5.56348L11.423 5.90866C11.3161 5.903 11.2109 5.87897 11.1119 5.83759L7.33874 3.80714C7.17475 3.7453 7.00187 3.71101 6.82694 3.70561C6.64147 3.69252 6.45512 3.70966 6.27501 3.75637C5.87872 3.83496 5.5294 4.06933 5.30366 4.40809C5.07792 4.74685 4.99418 5.16235 5.0708 5.56348L6.24491 11.8274C6.27607 12.028 6.35153 12.2188 6.46568 12.3858L9.09488 16.9848L9.25544 17.2691V21.797L3.3849 23.2386C3.05374 23.3198 2.81289 23.5229 2.81289 23.7056C2.80854 23.7257 2.80854 23.7465 2.81289 23.7665C2.90321 23.929 3.20426 23.9899 3.52539 23.9188L4.25795 23.7361L18.8691 20.2031C19.0056 20.1495 19.129 20.0663 19.2304 19.9594C19.329 19.8528 19.4012 19.7241 19.4411 19.5838C19.4913 19.3503 19.5314 19.0254 19.3608 18.8731C19.3317 18.8421 19.2967 18.8174 19.2579 18.8005C19.2191 18.7836 19.1773 18.7749 19.135 18.7749C19.0928 18.7749 19.051 18.7836 19.0121 18.8005C18.9733 18.8174 18.9383 18.8421 18.9092 18.8731C18.7988 18.995 18.829 19.2691 18.7186 19.4417C18.6082 19.6142 18.7186 19.4417 18.6584 19.4417L11.3528 21.3198V16.6904C11.3462 16.4904 11.2911 16.2952 11.1922 16.1219L9.1852 12.6396L22.6824 1.10663C22.7189 1.07543 22.7488 1.03724 22.7706 0.994258C22.7924 0.951276 22.8055 0.904357 22.8092 0.856213C22.813 0.808068 22.8072 0.759652 22.7924 0.713764C22.7775 0.667875 22.7538 0.625423 22.7226 0.588861ZM9.46618 11.401C9.46618 11.3401 8.57305 6.5381 8.57305 6.5381C8.57305 6.5381 10.4697 7.55333 10.5199 7.55333H10.7206H10.9112L14.3734 7.13709L9.46618 11.401ZM7.56954 16.2437C7.73338 16.1406 7.85181 15.9777 7.90037 15.7888C7.94893 15.5998 7.9239 15.3993 7.83046 15.2285L6.52589 12.9137C6.42719 12.7445 6.26765 12.6205 6.08063 12.5675C5.89361 12.5145 5.69359 12.5367 5.52238 12.6295C5.35511 12.7293 5.23248 12.8907 5.18012 13.0799C5.12775 13.2691 5.14971 13.4715 5.24139 13.6447L6.556 15.9493C6.65494 16.121 6.81556 16.2474 7.00437 16.3022C7.19318 16.3571 7.39564 16.3361 7.56954 16.2437ZM6.56603 3.61424C6.92081 3.6082 7.26587 3.496 7.55769 3.29179C7.84951 3.08758 8.07501 2.8005 8.20574 2.46678C8.33647 2.13306 8.36658 1.76765 8.29226 1.41664C8.21795 1.06563 8.04254 0.744746 7.78817 0.494474C7.5338 0.244202 7.21186 0.0757517 6.86296 0.0103742C6.51407 -0.0550033 6.15385 -0.0143794 5.82775 0.127121C5.50165 0.268622 5.22428 0.504659 5.03063 0.805457C4.83698 1.10626 4.73572 1.45834 4.73964 1.81729C4.73963 2.05546 4.78617 2.29128 4.87656 2.51119C4.96696 2.7311 5.09943 2.93077 5.26636 3.09871C5.4333 3.26665 5.6314 3.39955 5.84927 3.48976C6.06715 3.57998 6.30051 3.62573 6.53593 3.62439L6.56603 3.61424Z" fill="black"/>
</g>
<defs>
<clipPath id="clip0_1457_8571">
<rect width="20" height="24" fill="white" transform="translate(2.81287)"/>
</clipPath>
</defs>
</svg>
