<svg width="23" height="22" viewBox="0 0 23 22" fill="none" xmlns="http://www.w3.org/2000/svg">
<path fill-rule="evenodd" clip-rule="evenodd" d="M3.44631 3.22189C7.74184 -1.07364 14.707 -1.07364 19.0025 3.22189C23.298 7.51741 23.298 14.4826 19.0025 18.7781C14.707 23.0736 7.74184 23.0736 3.44631 18.7781C-0.849211 14.4826 -0.849211 7.51741 3.44631 3.22189ZM17.5883 4.6361C14.0738 1.12162 8.375 1.12162 4.86053 4.6361C1.34605 8.15058 1.34605 13.8494 4.86053 17.3639C8.375 20.8784 14.0738 20.8784 17.5883 17.3639C21.1028 13.8494 21.1028 8.15058 17.5883 4.6361ZM7.68938 7.46382C8.07994 7.07333 8.7131 7.07339 9.10359 7.46395L11.2244 9.58516L13.3453 7.46395C13.7357 7.07339 14.3689 7.07333 14.7595 7.46382C15.15 7.85431 15.1501 8.48748 14.7596 8.87804L12.6385 10.9995L14.7596 13.1209C15.1501 13.5115 15.15 14.1447 14.7595 14.5352C14.3689 14.9257 13.7357 14.9256 13.3453 14.535L11.2244 12.4138L9.10359 14.535C8.7131 14.9256 8.07994 14.9257 7.68938 14.5352C7.29882 14.1447 7.29876 13.5115 7.68925 13.1209L9.81033 10.9995L7.68925 8.87804C7.29876 8.48748 7.29882 7.85431 7.68938 7.46382Z" fill="#ED0A34"/>
</svg>
