<svg width="23" height="22" viewBox="0 0 23 22" fill="none" xmlns="http://www.w3.org/2000/svg">
<path fill-rule="evenodd" clip-rule="evenodd" d="M0.224152 11C0.224152 4.92472 5.14887 0 11.2242 0C17.2994 0 22.2242 4.92472 22.2242 11C22.2242 17.0753 17.2994 22 11.2242 22C5.14887 22 0.224152 17.0753 0.224152 11ZM11.2242 2C6.25344 2 2.22415 6.02928 2.22415 11C2.22415 15.9707 6.25344 20 11.2242 20C16.1949 20 20.2242 15.9707 20.2242 11C20.2242 6.02928 16.1949 2 11.2242 2Z" fill="#63D733"/>
<path fill-rule="evenodd" clip-rule="evenodd" d="M15.3931 7.75671C15.8036 8.12617 15.8369 8.75846 15.4675 9.16897L10.9675 14.169C10.7894 14.3668 10.54 14.4854 10.2742 14.4988C10.0084 14.5121 9.74832 14.4189 9.55144 14.2399L7.05144 11.9669C6.64281 11.5954 6.61273 10.9629 6.98426 10.5543C7.35579 10.1457 7.98824 10.1156 8.39688 10.4871L10.1532 12.084L13.9809 7.83104C14.3503 7.42053 14.9826 7.38726 15.3931 7.75671Z" fill="#63D733"/>
</svg>
