<svg width="23" height="22" viewBox="0 0 23 22" fill="none" xmlns="http://www.w3.org/2000/svg">
<path fill-rule="evenodd" clip-rule="evenodd" d="M0.224152 11C0.224152 4.92472 5.14887 0 11.2242 0C17.2994 0 22.2242 4.92472 22.2242 11C22.2242 17.0753 17.2994 22 11.2242 22C5.14887 22 0.224152 17.0753 0.224152 11ZM11.2242 2C6.25344 2 2.22415 6.02928 2.22415 11C2.22415 15.9707 6.25344 20 11.2242 20C16.1949 20 20.2242 15.9707 20.2242 11C20.2242 6.02928 16.1949 2 11.2242 2ZM11.2242 6C11.7764 6 12.2242 6.44772 12.2242 7V11C12.2242 11.5523 11.7764 12 11.2242 12C10.6719 12 10.2242 11.5523 10.2242 11V7C10.2242 6.44772 10.6719 6 11.2242 6ZM10.2242 15C10.2242 14.4477 10.6719 14 11.2242 14H11.2342C11.7864 14 12.2342 14.4477 12.2342 15C12.2342 15.5523 11.7864 16 11.2342 16H11.2242C10.6719 16 10.2242 15.5523 10.2242 15Z" fill="#FAA800"/>
</svg>
