<svg width="25" height="24" viewBox="0 0 25 24" fill="none" xmlns="http://www.w3.org/2000/svg">
<g clip-path="url(#clip0_1457_8577)">
<path d="M13.6452 1.74046C13.6452 2.70169 12.8996 3.48092 11.9799 3.48092C11.0601 3.48092 10.3145 2.70169 10.3145 1.74046C10.3145 0.77923 11.0601 0 11.9799 0C12.8996 0 13.6452 0.77923 13.6452 1.74046Z" fill="black"/>
<path d="M12.8975 19.1415L12.3132 19.2466L12.2322 18.7551L12.8165 18.65L12.8975 19.1415Z" fill="black"/>
<path d="M11.7288 19.3518L11.1445 19.457L11.0635 18.9655L11.6478 18.8603L11.7288 19.3518Z" fill="black"/>
<path fill-rule="evenodd" clip-rule="evenodd" d="M19.9464 18.4223C19.9951 18.3205 20.0243 18.3205 20.1509 18.3205C20.3359 18.3205 20.4431 18.5139 20.4431 18.7277C20.4731 18.9065 20.4378 19.0905 20.3439 19.2433C20.2501 19.396 20.1047 19.5063 19.9366 19.5521L6.2049 22.0356L5.52318 22.1577C5.40887 22.1935 5.28728 22.1953 5.17204 22.1629C5.0568 22.1306 4.95245 22.0653 4.87068 21.9745V21.9134C4.87068 21.7302 5.11415 21.547 5.4258 21.4859L7.64625 21.089L7.88163 20.0394L7.73068 20.0664L7.64999 19.5749L7.89833 19.5304L7.9395 19.7812L9.73035 11.5114C9.72033 11.4065 9.72033 11.3008 9.73035 11.1959L10.0615 6.05592L8.75647 6.72767L7.66572 9.22131C7.61941 9.30661 7.55719 9.38131 7.48274 9.44101C7.4083 9.50071 7.32315 9.54419 7.23233 9.56887C7.14151 9.59354 7.04688 9.59892 6.95404 9.58468C6.8612 9.57043 6.77204 9.53686 6.69184 9.48594C6.56193 9.42874 6.45007 9.33441 6.36911 9.2138C6.28815 9.09318 6.24136 8.95115 6.23412 8.80401C6.21589 8.7237 6.21589 8.64005 6.23412 8.55973L7.53912 5.65897C7.57657 5.58305 7.62595 5.51424 7.6852 5.45541L7.85076 5.34345L10.4608 4.07119C10.6042 3.87949 10.7898 3.7267 11.0016 3.62573C11.2135 3.52475 11.4456 3.47855 11.6781 3.49103H11.7755C12.1066 3.51782 12.4215 3.65182 12.6763 3.87438C12.9312 4.09694 13.1133 4.39698 13.1974 4.73276L14.9309 6.25948H17.5701C17.7527 6.2776 17.9213 6.3698 18.0397 6.51632C18.158 6.66283 18.2167 6.85198 18.2031 7.0432C18.2141 7.23272 18.1542 7.41927 18.0361 7.56356C17.918 7.70785 17.7509 7.79862 17.5701 7.81673H14.5024C14.4207 7.81807 14.3401 7.79701 14.2686 7.75566C14.2118 7.73523 14.159 7.70419 14.1128 7.66406L13.1389 6.8091L12.8955 10.8803L15.4957 15.5928C15.6408 15.7559 15.7209 15.9707 15.7197 16.1933V18.1286L15.918 18.093L15.999 18.5844L15.7604 18.6274L15.7197 18.3808V19.6437L19.849 18.8498C19.9071 18.8134 19.9132 18.7045 19.919 18.601C19.9229 18.531 19.9267 18.4634 19.9464 18.4223ZM9.92513 20.6819L13.733 19.9999L13.7456 18.9888L13.4818 19.0363L13.4008 18.5448L13.693 18.4922L13.7476 18.8238L13.772 16.8651L11.6781 13.0686L10.2807 19.1064L10.4792 19.0707L10.5602 19.5622L10.268 19.6147L10.2244 19.3504L9.97383 20.519C9.96198 20.5746 9.94569 20.6291 9.92513 20.6819Z" fill="black"/>
<path d="M23.9411 20.1542L23.6866 20.1999L23.6058 19.7084L23.8603 19.6627L23.9411 20.1542Z" fill="black"/>
<path d="M23.1776 20.2913L22.6686 20.3826L22.5879 19.8911L23.0968 19.7997L23.1776 20.2913Z" fill="black"/>
<path d="M22.1597 20.474L21.6507 20.5653L21.5699 20.0738L22.0789 19.9825L22.1597 20.474Z" fill="black"/>
<path d="M21.1417 20.6567L20.6328 20.7481L20.552 20.2565L21.0609 20.1652L21.1417 20.6567Z" fill="black"/>
<path d="M20.1238 20.8394L19.6148 20.9308L19.534 20.4393L20.043 20.3479L20.1238 20.8394Z" fill="black"/>
<path d="M19.1058 21.0222L18.5969 21.1135L18.5161 20.622L19.0251 20.5306L19.1058 21.0222Z" fill="black"/>
<path d="M18.0879 21.2049L17.5789 21.2962L17.4982 20.8047L18.0071 20.7133L18.0879 21.2049Z" fill="black"/>
<path d="M17.07 21.3876L16.561 21.479L16.4802 20.9874L16.9892 20.8961L17.07 21.3876Z" fill="black"/>
<path d="M16.052 21.5703L15.5431 21.6617L15.4623 21.1701L15.9712 21.0788L16.052 21.5703Z" fill="black"/>
<path d="M15.0341 21.753L14.5251 21.8444L14.4443 21.3529L14.9533 21.2615L15.0341 21.753Z" fill="black"/>
<path d="M14.0161 21.9358L13.5072 22.0271L13.4264 21.5356L13.9354 21.4442L14.0161 21.9358Z" fill="black"/>
<path d="M12.9982 22.1185L12.4892 22.2098L12.4085 21.7183L12.9174 21.6269L12.9982 22.1185Z" fill="black"/>
<path d="M11.9803 22.3012L11.4713 22.3926L11.3905 21.901L11.8995 21.8097L11.9803 22.3012Z" fill="black"/>
<path d="M10.9623 22.4839L10.4534 22.5753L10.3726 22.0838L10.8816 21.9924L10.9623 22.4839Z" fill="black"/>
<path d="M9.94439 22.6666L9.43542 22.758L9.35465 22.2665L9.86362 22.1751L9.94439 22.6666Z" fill="black"/>
<path d="M8.92646 22.8494L8.41749 22.9407L8.33671 22.4492L8.84568 22.3578L8.92646 22.8494Z" fill="black"/>
<path d="M7.90852 23.0321L7.39955 23.1234L7.31877 22.6319L7.82774 22.5406L7.90852 23.0321Z" fill="black"/>
<path d="M6.89058 23.2148L6.38161 23.3062L6.30083 22.8146L6.8098 22.7233L6.89058 23.2148Z" fill="black"/>
<path d="M5.87264 23.3975L5.36367 23.4889L5.28289 22.9974L5.79186 22.906L5.87264 23.3975Z" fill="black"/>
<path d="M4.8547 23.5803L4.34573 23.6716L4.26495 23.1801L4.77392 23.0887L4.8547 23.5803Z" fill="black"/>
<path d="M3.83676 23.763L3.32779 23.8543L3.24701 23.3628L3.75598 23.2714L3.83676 23.763Z" fill="black"/>
<path d="M2.81882 23.9457L2.56434 23.9914L2.48356 23.4998L2.73804 23.4542L2.81882 23.9457Z" fill="black"/>
<path d="M23.157 17.2963L23.3956 17.2533L23.3146 16.7618L23.076 16.8048L23.157 17.2963Z" fill="black"/>
<path d="M22.2026 17.468L22.6798 17.3822L22.5988 16.8907L22.1216 16.9765L22.2026 17.468Z" fill="black"/>
<path d="M21.2482 17.6398L21.7254 17.5539L21.6444 17.0624L21.1672 17.1483L21.2482 17.6398Z" fill="black"/>
<path d="M20.2938 17.8115L20.771 17.7257L20.69 17.2342L20.2128 17.3201L20.2938 17.8115Z" fill="black"/>
<path d="M19.3394 17.9833L19.8166 17.8974L19.7356 17.4059L19.2584 17.4918L19.3394 17.9833Z" fill="black"/>
<path d="M18.385 18.1551L18.8622 18.0692L18.7812 17.5777L18.304 17.6636L18.385 18.1551Z" fill="black"/>
<path d="M17.4306 18.3268L17.9078 18.2409L17.8268 17.7494L17.3496 17.8353L17.4306 18.3268Z" fill="black"/>
<path d="M16.4762 18.4986L16.9534 18.4127L16.8724 17.9212L16.3952 18.0071L16.4762 18.4986Z" fill="black"/>
<path d="M6.73732 20.2446L7.234 20.1555L7.15331 19.664L6.65663 19.753L6.73732 20.2446Z" fill="black"/>
<path d="M5.74397 20.4227L6.24065 20.3336L6.15995 19.8421L5.66327 19.9311L5.74397 20.4227Z" fill="black"/>
<path d="M4.75061 20.6008L5.24728 20.5117L5.16659 20.0202L4.66991 20.1092L4.75061 20.6008Z" fill="black"/>
<path d="M3.75724 20.7789L4.25393 20.6898L4.17323 20.1983L3.67655 20.2874L3.75724 20.7789Z" fill="black"/>
<path d="M2.76389 20.957L3.26056 20.868L3.17987 20.3764L2.68319 20.4655L2.76389 20.957Z" fill="black"/>
<path d="M2.01887 21.0906L2.26721 21.0461L2.18651 20.5545L1.93817 20.5991L2.01887 21.0906Z" fill="black"/>
</g>
<defs>
<clipPath id="clip0_1457_8577">
<rect width="22" height="24" fill="white" transform="translate(1.93958)"/>
</clipPath>
</defs>
</svg>
