<svg width="13" height="13" viewBox="0 0 13 13" fill="none" xmlns="http://www.w3.org/2000/svg">
<path fill-rule="evenodd" clip-rule="evenodd" d="M6.76676 0.75C6.98139 0.75 7.1774 0.875922 7.2724 1.07483L8.88375 4.44858L12.4872 4.99293C12.6995 5.025 12.8759 5.17886 12.942 5.38983C13.0082 5.6008 12.9528 5.83231 12.7991 5.98705L10.1921 8.61131L10.8074 12.3187C10.8437 12.5374 10.7567 12.7583 10.583 12.8887C10.4093 13.0191 10.1791 13.0363 9.98913 12.933L6.76676 11.1816L3.54439 12.933C3.35441 13.0363 3.12417 13.0191 2.95051 12.8887C2.77684 12.7583 2.68987 12.5374 2.72615 12.3187L3.3414 8.61131L0.734426 5.98705C0.5807 5.83231 0.525285 5.6008 0.591473 5.38983C0.657661 5.17886 0.833978 5.025 1.04632 4.99293L4.64977 4.44858L6.26112 1.07483C6.35612 0.875922 6.55213 0.75 6.76676 0.75Z" fill="#FAA800"/>
</svg>
