<svg width="24" height="24" viewBox="0 0 24 24" fill="none" xmlns="http://www.w3.org/2000/svg">
<mask id="mask0_1239_1464" style="mask-type:luminance" maskUnits="userSpaceOnUse" x="0" y="0" width="24" height="24">
<path d="M0 0H24V24H0V0Z" fill="white"/>
</mask>
<g mask="url(#mask0_1239_1464)">
<path d="M15.675 10.5H8.325C7.8675 10.5 7.5 10.8675 7.5 11.325V17.925C7.5 18.3825 7.8675 18.75 8.325 18.75H15.675C16.1325 18.75 16.5 18.3825 16.5 17.925V11.325C16.5 10.875 16.1325 10.5 15.675 10.5Z" fill="#2C2D2E"/>
<path d="M21.7673 2.16009C21.7791 2.25795 21.7715 2.35718 21.745 2.45212C21.7184 2.54705 21.6734 2.63582 21.6125 2.71335C21.5517 2.79088 21.4761 2.85564 21.3902 2.90394C21.3042 2.95224 21.2096 2.98313 21.1117 2.99484L12.75 3.99984V6.75009H15.3C15.5475 6.75009 15.7425 6.95259 15.75 7.19259V7.50009H20.985C22.6523 7.50009 23.985 8.85759 24 10.4941L24.0037 10.8841L24 10.8908V20.2426C23.9992 21.239 23.603 22.1944 22.8983 22.8989C22.1937 23.6034 21.2382 23.9995 20.2418 24.0001H3.7575C2.76119 23.9993 1.80592 23.6032 1.10142 22.8987C0.396928 22.1942 0.000794504 21.2389 0 20.2426L0 10.5001C0.00375 8.84259 1.35 7.50009 3.0075 7.50009H8.25V7.19259C8.25 6.95259 8.445 6.75009 8.6925 6.75009H11.25V4.18059L3.0825 5.16234C2.88498 5.18621 2.68607 5.13063 2.52952 5.00785C2.37298 4.88506 2.27162 4.70511 2.24775 4.50759C2.22388 4.31007 2.27945 4.11116 2.40224 3.95461C2.52503 3.79806 2.70498 3.69671 2.9025 3.67284L7.0305 3.17709C7.04468 3.17443 7.05894 3.17218 7.07325 3.17034L16.4333 2.04534L16.4715 2.04159L20.9333 1.50534C21.0311 1.49361 21.1302 1.50126 21.2251 1.52785C21.3199 1.55445 21.4086 1.59946 21.486 1.66033C21.5635 1.72121 21.6282 1.79674 21.6764 1.88261C21.7247 1.96849 21.7555 2.06228 21.7673 2.16009ZM3.0075 9.00009C2.60898 9.00008 2.22668 9.15788 1.94418 9.43897C1.66168 9.72006 1.50198 10.1016 1.5 10.5001H5.172C5.631 10.5001 6 10.8751 6 11.3251V17.9251C6 18.3826 5.631 18.7501 5.172 18.7501H1.5V20.2426C1.5 21.4876 2.5125 22.5001 3.75825 22.5001H20.2425C21.4867 22.5001 22.5 21.4876 22.5 20.2426V18.7501H18.828C18.369 18.7501 18 18.3826 18 17.9251V11.3251C18 10.8676 18.369 10.5001 18.828 10.5001H22.5C22.4937 10.1016 22.3316 9.72147 22.0484 9.44108C21.7653 9.1607 21.3835 9.00239 20.985 9.00009H3.0075Z" fill="#2C2D2E"/>
</g>
</svg>
