<svg width="24" height="18" viewBox="0 0 24 18" fill="none" xmlns="http://www.w3.org/2000/svg">
<path d="M15.3749 5.5C15.8941 5.5 16.4016 5.34605 16.8333 5.05761C17.2649 4.76917 17.6014 4.3592 17.8001 3.87955C17.9988 3.39989 18.0507 2.87209 17.9495 2.36289C17.8482 1.85369 17.5982 1.38596 17.2311 1.01885C16.8639 0.651733 16.3962 0.401726 15.887 0.30044C15.3778 0.199154 14.85 0.251137 14.3704 0.449817C13.8907 0.648497 13.4807 0.98495 13.1923 1.41663C12.9039 1.84831 12.7499 2.35583 12.7499 2.875C12.7524 3.57043 13.0297 4.23668 13.5215 4.72843C14.0132 5.22018 14.6795 5.49753 15.3749 5.5ZM15.3749 1.75C15.5974 1.75 15.8149 1.81598 15.9999 1.9396C16.1849 2.06321 16.3291 2.23892 16.4143 2.44448C16.4994 2.65005 16.5217 2.87625 16.4783 3.09448C16.4349 3.31271 16.3277 3.51316 16.1704 3.6705C16.0131 3.82783 15.8126 3.93498 15.5944 3.97838C15.3761 4.02179 15.1499 3.99951 14.9444 3.91437C14.7388 3.82922 14.5631 3.68502 14.4395 3.50002C14.3159 3.31501 14.2499 3.09751 14.2499 2.875C14.2499 2.57663 14.3684 2.29048 14.5794 2.07951C14.7904 1.86853 15.0765 1.75 15.3749 1.75ZM23.8968 16.3656L18.5436 7.32813C18.4095 7.10486 18.2198 6.92012 17.9931 6.79186C17.7664 6.66361 17.5104 6.5962 17.2499 6.5962C16.9894 6.5962 16.7334 6.66361 16.5067 6.79186C16.28 6.92012 16.0903 7.10486 15.9561 7.32813L13.5093 11.4625L9.54365 4.72188C9.4113 4.49631 9.22228 4.30927 8.99534 4.1793C8.7684 4.04934 8.51142 3.98096 8.2499 3.98096C7.98837 3.98096 7.7314 4.04934 7.50445 4.1793C7.27751 4.30927 7.08849 4.49631 6.95615 4.72188L0.103021 16.3656C0.0344807 16.4804 -0.00170898 16.6116 -0.00170898 16.7453C-0.00170898 16.879 0.0344807 17.0102 0.103021 17.125C0.167124 17.2399 0.261054 17.3354 0.374905 17.4014C0.488755 17.4674 0.618306 17.5015 0.749896 17.5H23.2499C23.3825 17.5002 23.5129 17.4657 23.628 17.4C23.7431 17.3342 23.839 17.2394 23.9061 17.125C23.9696 17.0082 24.002 16.877 24.0004 16.7441C23.9988 16.6112 23.9631 16.4809 23.8968 16.3656ZM8.2499 5.48125L10.4718 9.25H6.02802L8.2499 5.48125ZM2.0624 16L5.14677 10.75H11.353L12.8624 13.3188L14.4374 16H2.0624ZM16.1811 16L14.3811 12.9438L17.2499 8.09688L21.9374 16H16.1811Z" fill="#2C2D2E"/>
</svg>
