<svg width="24" height="24" viewBox="0 0 24 24" fill="none" xmlns="http://www.w3.org/2000/svg">
<path fill-rule="evenodd" clip-rule="evenodd" d="M11.9998 0.857178C12.769 0.857178 13.3926 1.48078 13.3926 2.25003V10.6072H21.7498C22.519 10.6072 23.1426 11.2308 23.1426 12C23.1426 12.7693 22.519 13.3929 21.7498 13.3929H13.3926V21.75C13.3926 22.5193 12.769 23.1429 11.9998 23.1429C11.2305 23.1429 10.6069 22.5193 10.6069 21.75V13.3929H2.24979C1.48054 13.3929 0.856934 12.7693 0.856934 12C0.856934 11.2308 1.48054 10.6072 2.24979 10.6072H10.6069V2.25003C10.6069 1.48078 11.2305 0.857178 11.9998 0.857178Z" fill="#D9D9D9"/>
</svg>
