<svg width="16" height="15" viewBox="0 0 16 15" fill="none" xmlns="http://www.w3.org/2000/svg">
<path fill-rule="evenodd" clip-rule="evenodd" d="M8.0001 0.666626C8.25385 0.666626 8.48559 0.810674 8.59791 1.03821L10.5029 4.8976L14.7632 5.5203C15.0142 5.557 15.2227 5.733 15.3009 5.97434C15.3792 6.21568 15.3137 6.48051 15.1319 6.65753L12.0498 9.65954L12.7772 13.9006C12.8201 14.1507 12.7172 14.4035 12.5119 14.5527C12.3066 14.7018 12.0344 14.7215 11.8098 14.6033L8.0001 12.5999L4.1904 14.6033C3.96579 14.7215 3.6936 14.7018 3.48828 14.5527C3.28296 14.4035 3.18013 14.1507 3.22303 13.9006L3.95042 9.65954L0.868279 6.65753C0.686534 6.48051 0.621018 6.21568 0.69927 5.97434C0.777522 5.733 0.985975 5.557 1.23702 5.5203L5.49726 4.8976L7.4023 1.03821C7.51461 0.810674 7.74636 0.666626 8.0001 0.666626Z" fill="#FAA800"/>
</svg>
