<svg width="24" height="24" viewBox="0 0 24 24" fill="none" xmlns="http://www.w3.org/2000/svg">
<g clip-path="url(#clip0_1701_5138)">
<path d="M18.4916 5.4408C19.5101 5.4408 20.3358 4.62825 20.3358 3.62592C20.3358 2.62358 19.5101 1.81104 18.4916 1.81104C17.4731 1.81104 16.6475 2.62358 16.6475 3.62592C16.6475 4.62825 17.4731 5.4408 18.4916 5.4408Z" fill="#2C2D2E"/>
<path d="M22.7404 10.4562L17.5449 5.75609C17.3704 5.58956 17.1677 5.45532 16.9463 5.35961L12.8985 3.94169L11.0596 1.31801C10.986 1.22128 10.8939 1.14023 10.7885 1.07965C10.6832 1.01906 10.5668 0.98015 10.4462 0.965206C10.2151 0.938804 9.98289 1.00427 9.79963 1.14748C9.61637 1.2907 9.49672 1.50019 9.46649 1.73081C9.44489 1.93385 9.49385 2.12681 9.59705 2.28713L11.4729 4.95833C11.5598 5.07017 11.6687 5.15609 11.7993 5.21513L13.9761 6.06089L10.3967 7.85945C10.1481 7.99991 9.93379 8.1938 9.76919 8.42713C9.6046 8.66046 9.49383 8.92741 9.44489 9.20873L9.46649 12.4262L6.16169 13.893C5.97248 13.9784 5.81067 14.1146 5.69431 14.2864C5.57795 14.4583 5.5116 14.6591 5.50265 14.8665C5.49315 15.1128 5.56631 15.3553 5.71049 15.5553L3.92825 14.8881C3.76294 14.8264 3.61348 14.7285 3.49075 14.6017C3.36802 14.4749 3.27512 14.3224 3.21881 14.1551C3.01481 13.5575 2.35625 13.2364 1.74953 13.438C1.60616 13.4842 1.4734 13.5584 1.35895 13.6564C1.24449 13.7543 1.15063 13.874 1.0828 14.0085C1.01497 14.143 0.974525 14.2896 0.963816 14.4399C0.953107 14.5901 0.972345 14.741 1.02041 14.8838C1.188 15.3717 1.46185 15.8163 1.82219 16.1856C2.18254 16.5548 2.62038 16.8394 3.10409 17.0188L18.5836 22.8095C19.0684 22.994 19.5878 23.0694 20.105 23.0303C20.6222 22.9912 21.1244 22.8387 21.5759 22.5834C21.7072 22.5105 21.8226 22.4121 21.9154 22.2941C22.0083 22.176 22.0767 22.0407 22.1168 21.8959C22.1568 21.7512 22.1676 21.5999 22.1486 21.451C22.1296 21.302 22.0811 21.1583 22.006 21.0282C21.8495 20.7652 21.5963 20.5739 21.3005 20.4952C21.0048 20.4165 20.6899 20.4568 20.4235 20.6073C20.2696 20.6936 20.0986 20.745 19.9226 20.7576C19.7466 20.7703 19.57 20.7441 19.4054 20.6807L15.5673 19.2441C15.7657 19.1782 15.9419 19.0583 16.076 18.8979C16.2101 18.7375 16.2969 18.5429 16.3267 18.3359L16.931 13.5234L16.9358 13.4586C16.9442 13.2978 16.9167 13.1372 16.8555 12.9883C16.7942 12.8393 16.7006 12.7059 16.5815 12.5975L13.9819 10.3276L17.8991 8.42777L21.538 11.7244C21.7022 11.8799 21.9196 11.9764 22.1639 11.9764C22.654 11.9711 23.0457 11.5799 23.0404 11.0985C23.0393 10.9762 23.0119 10.8556 22.9602 10.7448C22.9084 10.634 22.8335 10.5356 22.7404 10.4562ZM14.5742 13.833L14.0567 18.0575L14.0519 18.1314C14.0423 18.3508 14.099 18.5558 14.2017 18.7324L6.90905 16.0031C6.99161 15.983 7.07273 15.957 7.14665 15.9206L11.1955 14.121C11.3405 14.0446 11.4671 13.9376 11.5668 13.8074C11.6664 13.6772 11.7365 13.5269 11.7724 13.367L11.7619 11.3658L14.5742 13.833Z" fill="#2C2D2E"/>
</g>
<defs>
<clipPath id="clip0_1701_5138">
<rect width="24" height="24" fill="white"/>
</clipPath>
</defs>
</svg>
