<svg width="26" height="25" viewBox="0 0 26 25" fill="none" xmlns="http://www.w3.org/2000/svg">
<path fill-rule="evenodd" clip-rule="evenodd" d="M12.9999 0.166504C13.4439 0.166504 13.8495 0.418588 14.046 0.816776L17.3798 7.57071L24.8353 8.66044C25.2746 8.72465 25.6394 9.03266 25.7763 9.455C25.9133 9.87734 25.7986 10.3408 25.4806 10.6506L20.0868 15.9041L21.3597 23.326C21.4348 23.7637 21.2549 24.206 20.8956 24.4671C20.5363 24.7281 20.0599 24.7625 19.6668 24.5558L12.9999 21.0497L6.3329 24.5558C5.93983 24.7625 5.46349 24.7281 5.10418 24.4671C4.74487 24.206 4.56492 23.7637 4.64 23.326L5.91293 15.9041L0.519183 10.6506C0.201128 10.3408 0.0864768 9.87734 0.223418 9.455C0.360358 9.03266 0.725152 8.72465 1.16447 8.66044L8.6199 7.57071L11.9537 0.816776C12.1503 0.418588 12.5558 0.166504 12.9999 0.166504Z" fill="#005FF9"/>
</svg>

