<svg width="16" height="16" viewBox="0 0 16 15" fill="none" xmlns="http://www.w3.org/2000/svg">
<path fill-rule="evenodd" clip-rule="evenodd" d="M7.99999 0.666748C8.25374 0.666748 8.48549 0.810796 8.5978 1.03833L10.5028 4.89773L14.7631 5.52042C15.0141 5.55712 15.2226 5.73312 15.3008 5.97446C15.3791 6.2158 15.3136 6.48063 15.1318 6.65765L12.0497 9.65966L12.7771 13.9007C12.82 14.1508 12.7171 14.4036 12.5118 14.5528C12.3065 14.7019 12.0343 14.7216 11.8097 14.6035L7.99999 12.6L4.19029 14.6035C3.96568 14.7216 3.69349 14.7019 3.48817 14.5528C3.28285 14.4036 3.18002 14.1508 3.22292 13.9007L3.95031 9.65966L0.868172 6.65765C0.686427 6.48063 0.620911 6.2158 0.699163 5.97446C0.777415 5.73312 0.985868 5.55712 1.23691 5.52042L5.49715 4.89773L7.40219 1.03833C7.5145 0.810796 7.74625 0.666748 7.99999 0.666748Z" fill="#FAA800"/>
</svg>


