<svg width="16" height="16" viewBox="0 0 16 16" fill="none" xmlns="http://www.w3.org/2000/svg">
<path fill-rule="evenodd" clip-rule="evenodd" d="M7.99998 0.666626C8.25373 0.666626 8.48547 0.810674 8.59778 1.03821L10.5028 4.8976L14.7631 5.5203C15.0141 5.557 15.2226 5.733 15.3008 5.97434C15.3791 6.21568 15.3135 6.48051 15.1318 6.65753L12.0497 9.65954L12.7771 13.9006C12.82 14.1507 12.7171 14.4035 12.5118 14.5527C12.3065 14.7018 12.0343 14.7215 11.8097 14.6033L7.99998 12.5999L4.19028 14.6033C3.96567 14.7215 3.69347 14.7018 3.48816 14.5527C3.28284 14.4035 3.18001 14.1507 3.22291 13.9006L3.9503 9.65954L0.868157 6.65753C0.686411 6.48051 0.620896 6.21568 0.699148 5.97434C0.7774 5.733 0.985853 5.557 1.23689 5.5203L5.49714 4.8976L7.40217 1.03821C7.51449 0.810674 7.74623 0.666626 7.99998 0.666626Z" fill="#D9D9D9"/>
</svg>
